<svg xmlns="http://www.w3.org/2000/svg" xmlns:xlink="http://www.w3.org/1999/xlink" width="111.015625" height="28" viewBox="512 546 111.015625 28"><g id="Context pill"><rect width="111.015625" height="28" x="512" y="546" fill="rgb(255, 255, 255)" stroke="rgb(222, 221, 216)" stroke-width="1px" rx="14" ry="14" id="Fill"/><g id="Icon / users" transform="matrix(0.583333 0 0 0.583333 523 553)"><rect id="Bounds" width="24" height="24" fill="none"/><path d="M16 21v-2a4 4 0 0 0-4-4H6a4 4 0 0 0-4 4v2" fill="none" stroke="rgb(91, 94, 97)" stroke-linecap="round" stroke-linejoin="round" stroke-width="1.5px"/><circle cx="9" cy="7" r="4" fill="none" stroke="rgb(91, 94, 97)" stroke-linecap="round" stroke-linejoin="round" stroke-width="1.5px"/><path d="M22 21v-2a4 4 0 0 0-3-3.87" fill="none" stroke="rgb(91, 94, 97)" stroke-linecap="round" stroke-linejoin="round" stroke-width="1.5px"/><path d="M16 3.13a4 4 0 0 1 0 7.75" fill="none" stroke="rgb(91, 94, 97)" stroke-linecap="round" stroke-linejoin="round" stroke-width="1.5px"/></g><text dominant-baseline="text-after-edge" font-family="Lato, sans-serif" font-size="12px" font-weight="500" fill="rgb(91, 94, 97)"><tspan xml:space="preserve" x="543" y="567" textLength="51.015625" lengthAdjust="spacingAndGlyphs">All clients</tspan></text><g id="Icon / chevronDown" transform="matrix(0.5 0 0 0.5 600.016 554)"><rect id="Bounds" width="24" height="24" fill="none"/><path d="m6 9 6 6 6-6" fill="none" stroke="rgb(145, 147, 149)" stroke-linecap="round" stroke-linejoin="round" stroke-width="1.5px"/></g></g></svg>