<svg xmlns="http://www.w3.org/2000/svg" xmlns:xlink="http://www.w3.org/1999/xlink" width="276" height="28" viewBox="20 370 276 28"><g tabindex="0" id="Client row"><g id="Avatar"><g id="Icon / userRound" transform="matrix(0.583333 0 0 0.583333 28 377)"><path d="M18 20a6 6 0 0 0-12 0" fill="none" stroke="rgb(36, 40, 44)" stroke-linecap="round" stroke-linejoin="round" stroke-width="1.5px"/><circle cx="12" cy="10" r="4" fill="none" stroke="rgb(36, 40, 44)" stroke-linecap="round" stroke-linejoin="round" stroke-width="1.5px"/><circle cx="12" cy="12" r="10" fill="none" stroke="rgb(36, 40, 44)" stroke-linecap="round" stroke-linejoin="round" stroke-width="1.5px"/></g></g><text dominant-baseline="text-after-edge" font-family="Lato, sans-serif" font-size="12px" font-weight="400" fill="rgb(36, 40, 44)"><tspan xml:space="preserve" x="53" y="391" textLength="85.296875" lengthAdjust="spacingAndGlyphs">Khoshya, Ashish</tspan></text><g id="Workflow progress"><title>Review a tax return: 1 of 3 done</title><g id="Icon / workflow" transform="matrix(0.416667 0 0 0.416667 213.438 379)"><rect width="8" height="8" x="3" y="3" rx="2" fill="none" stroke="rgb(145, 147, 149)" stroke-linecap="round" stroke-linejoin="round" stroke-width="1.5px" id="Border"/><path d="M7 11v4a2 2 0 0 0 2 2h4" fill="none" stroke="rgb(145, 147, 149)" stroke-linecap="round" stroke-linejoin="round" stroke-width="1.5px"/><rect width="8" height="8" x="13" y="13" rx="2" fill="none" stroke="rgb(145, 147, 149)" stroke-linecap="round" stroke-linejoin="round" stroke-width="1.5px" id="Border"/></g><text dominant-baseline="text-after-edge" font-family="Lato, sans-serif" font-size="10px" font-weight="400" fill="rgb(145, 147, 149)"><tspan xml:space="preserve" x="226.4375" y="390">1</tspan><tspan xml:space="preserve" x="232.25" y="390">/</tspan><tspan xml:space="preserve" x="235.984375" y="390">3</tspan></text></g><g id="Form badge"><rect width="39.203125" height="18" x="251.796875" y="375" fill="rgba(132, 204, 22, 0.15)" rx="9" ry="9" id="Fill"/><text dominant-baseline="text-after-edge" font-family="Lato, sans-serif" font-size="10px" font-weight="500" fill="rgb(36, 40, 44)"><tspan xml:space="preserve" x="259.796875" y="390" textLength="23.203125" lengthAdjust="spacingAndGlyphs">1040</tspan></text></g></g></svg>