<svg xmlns="http://www.w3.org/2000/svg" xmlns:xlink="http://www.w3.org/1999/xlink" width="742" height="402" viewBox="503 293 742 402"><g id="Tray"><rect width="742" height="402" x="503" y="293" fill="rgb(247, 246, 240)" rx="24" ry="24" id="Fill"/><g id="Tray / Workflows"><g id="Section header"><text dominant-baseline="text-after-edge" font-family="Lato, sans-serif" font-size="10px" font-weight="400" letter-spacing="0.5px" fill="rgb(91, 94, 97)"><tspan xml:space="preserve" x="523" y="322" textLength="46.609375" lengthAdjust="spacingAndGlyphs">RUN FOR</tspan></text><text dominant-baseline="text-after-edge" font-family="Lato, sans-serif" font-size="10px" font-weight="400" letter-spacing="0.5px" fill="rgb(91, 94, 97)"/><g id="Done button"><rect width="60.3125" height="22" x="1168.6875" y="305" fill="rgb(36, 40, 44)" rx="11" ry="11" id="Fill"/><text dominant-baseline="text-after-edge" font-family="Lato, sans-serif" font-size="11px" font-weight="600" fill="rgb(255, 255, 255)"><tspan xml:space="preserve" x="1178.6875" y="322">Done</tspan><tspan xml:space="preserve" x="1205.296875" y="322"> · 8</tspan></text></g></g><g id="Client groups"><g id="Group"><rect width="93.4375" height="22" x="523" y="333" fill="rgb(240, 238, 227)" rx="11" ry="11" id="Fill"/><g id="Icon / check" transform="matrix(0.458333 0 0 0.458333 531 338.5)"><path d="M20 6 9 17l-5-5" fill="none" stroke="rgb(36, 40, 44)" stroke-linecap="round" stroke-linejoin="round" stroke-width="2px"/></g><text dominant-baseline="text-after-edge" font-family="Lato, sans-serif" font-size="11px" font-weight="400" fill="rgb(36, 40, 44)"><tspan xml:space="preserve" x="547" y="350" textLength="50.625" lengthAdjust="spacingAndGlyphs">Needs you</tspan></text><text dominant-baseline="text-after-edge" font-family="Lato, sans-serif" font-size="10px" font-weight="400" fill="rgb(145, 147, 149)"><tspan xml:space="preserve" x="602.625" y="350" textLength="5.8125" lengthAdjust="spacingAndGlyphs">3</tspan></text></g><g id="Group"><rect width="90.390625" height="22" x="618.4375" y="333" fill="rgb(240, 238, 227)" rx="11" ry="11" id="Fill"/><g id="Icon / check" transform="matrix(0.458333 0 0 0.458333 626.438 338.5)"><path d="M20 6 9 17l-5-5" fill="none" stroke="rgb(36, 40, 44)" stroke-linecap="round" stroke-linejoin="round" stroke-width="2px"/></g><text dominant-baseline="text-after-edge" font-family="Lato, sans-serif" font-size="11px" font-weight="400" fill="rgb(36, 40, 44)"><tspan xml:space="preserve" x="642.4375" y="350" textLength="47.578125" lengthAdjust="spacingAndGlyphs">Individual</tspan></text><text dominant-baseline="text-after-edge" font-family="Lato, sans-serif" font-size="10px" font-weight="400" fill="rgb(145, 147, 149)"><tspan xml:space="preserve" x="695.015625" y="350" textLength="5.8125" lengthAdjust="spacingAndGlyphs">6</tspan></text></g><g id="Group"><rect width="110.546875" height="22" x="710.828125" y="333" fill="rgb(240, 238, 227)" rx="11" ry="11" id="Fill"/><g id="Icon / check" transform="matrix(0.458333 0 0 0.458333 718.828 338.5)"><path d="M20 6 9 17l-5-5" fill="none" stroke="rgb(36, 40, 44)" stroke-linecap="round" stroke-linejoin="round" stroke-width="2px"/></g><text dominant-baseline="text-after-edge" font-family="Lato, sans-serif" font-size="11px" font-weight="400" fill="rgb(36, 40, 44)"><tspan xml:space="preserve" x="734.828125" y="350" textLength="67.734375" lengthAdjust="spacingAndGlyphs">Trust &amp; Estate</tspan></text><text dominant-baseline="text-after-edge" font-family="Lato, sans-serif" font-size="10px" font-weight="400" fill="rgb(145, 147, 149)"><tspan xml:space="preserve" x="807.5625" y="350" textLength="5.8125" lengthAdjust="spacingAndGlyphs">1</tspan></text></g><g id="Group"><text dominant-baseline="text-after-edge" font-family="Lato, sans-serif" font-size="11px" font-weight="400" fill="rgb(145, 147, 149)"><tspan xml:space="preserve" x="831.375" y="350" textLength="56.65625" lengthAdjust="spacingAndGlyphs">Partnership</tspan></text><text dominant-baseline="text-after-edge" font-family="Lato, sans-serif" font-size="10px" font-weight="400" fill="rgb(145, 147, 149)"><tspan xml:space="preserve" x="893.03125" y="350" textLength="5.8125" lengthAdjust="spacingAndGlyphs">2</tspan></text></g><g id="Group"><rect width="76.640625" height="22" x="908.84375" y="333" fill="rgb(240, 238, 227)" rx="11" ry="11" id="Fill"/><g id="Icon / check" transform="matrix(0.458333 0 0 0.458333 916.844 338.5)"><path d="M20 6 9 17l-5-5" fill="none" stroke="rgb(36, 40, 44)" stroke-linecap="round" stroke-linejoin="round" stroke-width="2px"/></g><text dominant-baseline="text-after-edge" font-family="Lato, sans-serif" font-size="11px" font-weight="400" fill="rgb(36, 40, 44)"><tspan xml:space="preserve" x="932.84375" y="350" textLength="33.828125" lengthAdjust="spacingAndGlyphs">C Corp</tspan></text><text dominant-baseline="text-after-edge" font-family="Lato, sans-serif" font-size="10px" font-weight="400" fill="rgb(145, 147, 149)"><tspan xml:space="preserve" x="971.671875" y="350" textLength="5.8125" lengthAdjust="spacingAndGlyphs">1</tspan></text></g><g id="Group"><text dominant-baseline="text-after-edge" font-family="Lato, sans-serif" font-size="11px" font-weight="400" fill="rgb(145, 147, 149)"><tspan xml:space="preserve" x="995.484375" y="350" textLength="32.109375" lengthAdjust="spacingAndGlyphs">S Corp</tspan></text><text dominant-baseline="text-after-edge" font-family="Lato, sans-serif" font-size="10px" font-weight="400" fill="rgb(145, 147, 149)"><tspan xml:space="preserve" x="1032.59375" y="350" textLength="5.8125" lengthAdjust="spacingAndGlyphs">2</tspan></text></g></g><g id="Search field"><rect width="710" height="26" x="519" y="361" fill="rgb(255, 255, 255)" stroke="rgb(222, 221, 216)" stroke-width="1px" rx="13" ry="13" id="Fill"/><g id="Icon / search" transform="matrix(0.5 0 0 0.5 528 368)"><circle cx="11" cy="11" r="8" fill="none" stroke="rgb(145, 147, 149)" stroke-linecap="round" stroke-linejoin="round" stroke-width="1.5px"/><path d="m21 21-4.3-4.3" fill="none" stroke="rgb(145, 147, 149)" stroke-linecap="round" stroke-linejoin="round" stroke-width="1.5px"/></g><g id="Composer / Placeholder"><text dominant-baseline="text-after-edge" font-family="Lato, sans-serif" font-size="12px" font-weight="400" unicode-bidi="isolate" fill="rgb(145, 147, 149)"><tspan xml:space="preserve" x="546" y="381" textLength="88.796875" lengthAdjust="spacingAndGlyphs">Search 12 clients</tspan></text></g></g><g mask="url(#mask-for-wf-client-list11)" id="Client options"><mask id="mask-for-wf-client-list11"><rect width="710" height="188" x="519" y="393" fill="#ffffff"/></mask><g id="Client option"><g id="Icon / circle" transform="matrix(0.583333 0 0 0.583333 527 401)"><circle cx="12" cy="12" r="9" fill="none" stroke="rgb(145, 147, 149)" stroke-linecap="round" stroke-linejoin="round" stroke-width="1.5px"/></g><text dominant-baseline="text-after-edge" font-family="Lato, sans-serif" font-size="12px" font-weight="400" fill="rgb(36, 40, 44)"><tspan xml:space="preserve" x="549" y="415" textLength="80.703125" lengthAdjust="spacingAndGlyphs">Alderwood LLC</tspan></text><g id="Form badge"><rect width="39.203125" height="18" x="1181.796875" y="399" fill="rgba(132, 204, 22, 0.15)" rx="9" ry="9" id="Fill"/><text dominant-baseline="text-after-edge" font-family="Lato, sans-serif" font-size="10px" font-weight="500" fill="rgb(36, 40, 44)"><tspan xml:space="preserve" x="1189.796875" y="414" textLength="23.203125" lengthAdjust="spacingAndGlyphs">1065</tspan></text></g></g><g id="Client option"><g id="Icon / circleCheck" transform="matrix(0.583333 0 0 0.583333 527 433)"><circle cx="12" cy="12" r="9" fill="none" stroke="rgb(36, 40, 44)" stroke-linecap="round" stroke-linejoin="round" stroke-width="1.5px"/><path d="m9 12 2 2 4-4" fill="none" stroke="rgb(36, 40, 44)" stroke-linecap="round" stroke-linejoin="round" stroke-width="1.5px"/></g><text dominant-baseline="text-after-edge" font-family="Lato, sans-serif" font-size="12px" font-weight="400" fill="rgb(36, 40, 44)"><tspan xml:space="preserve" x="549" y="447" textLength="77.34375" lengthAdjust="spacingAndGlyphs">Brecker, Owen</tspan></text><g id="Form badge"><rect width="39.203125" height="18" x="1181.796875" y="431" fill="rgba(132, 204, 22, 0.15)" rx="9" ry="9" id="Fill"/><text dominant-baseline="text-after-edge" font-family="Lato, sans-serif" font-size="10px" font-weight="500" fill="rgb(36, 40, 44)"><tspan xml:space="preserve" x="1189.796875" y="446" textLength="23.203125" lengthAdjust="spacingAndGlyphs">1040</tspan></text></g></g><g id="Client option"><g id="Icon / circleCheck" transform="matrix(0.583333 0 0 0.583333 527 465)"><circle cx="12" cy="12" r="9" fill="none" stroke="rgb(36, 40, 44)" stroke-linecap="round" stroke-linejoin="round" stroke-width="1.5px"/><path d="m9 12 2 2 4-4" fill="none" stroke="rgb(36, 40, 44)" stroke-linecap="round" stroke-linejoin="round" stroke-width="1.5px"/></g><text dominant-baseline="text-after-edge" font-family="Lato, sans-serif" font-size="12px" font-weight="400" fill="rgb(36, 40, 44)"><tspan xml:space="preserve" x="549" y="479" textLength="60.65625" lengthAdjust="spacingAndGlyphs">Cho, Daniel</tspan></text><g id="Form badge"><rect width="39.203125" height="18" x="1181.796875" y="463" fill="rgba(132, 204, 22, 0.15)" rx="9" ry="9" id="Fill"/><text dominant-baseline="text-after-edge" font-family="Lato, sans-serif" font-size="10px" font-weight="500" fill="rgb(36, 40, 44)"><tspan xml:space="preserve" x="1189.796875" y="478" textLength="23.203125" lengthAdjust="spacingAndGlyphs">1040</tspan></text></g></g><g id="Client option"><g id="Icon / circle" transform="matrix(0.583333 0 0 0.583333 527 497)"><circle cx="12" cy="12" r="9" fill="none" stroke="rgb(145, 147, 149)" stroke-linecap="round" stroke-linejoin="round" stroke-width="1.5px"/></g><text dominant-baseline="text-after-edge" font-family="Lato, sans-serif" font-size="12px" font-weight="400" fill="rgb(36, 40, 44)"><tspan xml:space="preserve" x="549" y="511" textLength="54.6875" lengthAdjust="spacingAndGlyphs">Fern &amp; Co.</tspan></text><g id="Form badge"><rect width="44.5" height="18" x="1176.5" y="495" fill="rgba(132, 204, 22, 0.15)" rx="9" ry="9" id="Fill"/><text dominant-baseline="text-after-edge" font-family="Lato, sans-serif" font-size="10px" font-weight="500" fill="rgb(36, 40, 44)"><tspan xml:space="preserve" x="1184.5" y="510" textLength="28.5" lengthAdjust="spacingAndGlyphs">1120S</tspan></text></g></g><g id="Client option"><g id="Icon / circle" transform="matrix(0.583333 0 0 0.583333 527 529)"><circle cx="12" cy="12" r="9" fill="none" stroke="rgb(145, 147, 149)" stroke-linecap="round" stroke-linejoin="round" stroke-width="1.5px"/></g><text dominant-baseline="text-after-edge" font-family="Lato, sans-serif" font-size="12px" font-weight="400" fill="rgb(36, 40, 44)"><tspan xml:space="preserve" x="549" y="543" textLength="74.640625" lengthAdjust="spacingAndGlyphs">Harbor &amp; Pine</tspan></text><g id="Form badge"><rect width="39.203125" height="18" x="1181.796875" y="527" fill="rgba(132, 204, 22, 0.15)" rx="9" ry="9" id="Fill"/><text dominant-baseline="text-after-edge" font-family="Lato, sans-serif" font-size="10px" font-weight="500" fill="rgb(36, 40, 44)"><tspan xml:space="preserve" x="1189.796875" y="542" textLength="23.203125" lengthAdjust="spacingAndGlyphs">1065</tspan></text></g></g><g id="Client option"><rect width="710" height="30" x="519" y="553" fill="rgb(240, 238, 227)" rx="14.999999999999998" ry="14.999999999999998" id="Fill"/><g id="Icon / circleCheck" transform="matrix(0.583333 0 0 0.583333 527 561)"><circle cx="12" cy="12" r="9" fill="none" stroke="rgb(36, 40, 44)" stroke-linecap="round" stroke-linejoin="round" stroke-width="1.5px"/><path d="m9 12 2 2 4-4" fill="none" stroke="rgb(36, 40, 44)" stroke-linecap="round" stroke-linejoin="round" stroke-width="1.5px"/></g><text dominant-baseline="text-after-edge" font-family="Lato, sans-serif" font-size="12px" font-weight="400" fill="rgb(36, 40, 44)"><tspan xml:space="preserve" x="549" y="575" textLength="59.1875" lengthAdjust="spacingAndGlyphs">Iyer, Meera</tspan></text><rect width="5" height="5" x="1168.796875" y="565.5" fill="rgb(201, 123, 74)" rx="2.5" ry="2.5" id="Needs-you dot"/><g id="Form badge"><rect width="39.203125" height="18" x="1181.796875" y="559" fill="rgba(132, 204, 22, 0.15)" rx="9" ry="9" id="Fill"/><text dominant-baseline="text-after-edge" font-family="Lato, sans-serif" font-size="10px" font-weight="500" fill="rgb(36, 40, 44)"><tspan xml:space="preserve" x="1189.796875" y="574" textLength="23.203125" lengthAdjust="spacingAndGlyphs">1040</tspan></text></g></g><g id="Client option"><g id="Icon / circleCheck" transform="matrix(0.583333 0 0 0.583333 527 593)"><circle cx="12" cy="12" r="9" fill="none" stroke="rgb(36, 40, 44)" stroke-linecap="round" stroke-linejoin="round" stroke-width="1.5px"/><path d="m9 12 2 2 4-4" fill="none" stroke="rgb(36, 40, 44)" stroke-linecap="round" stroke-linejoin="round" stroke-width="1.5px"/></g><text dominant-baseline="text-after-edge" font-family="Lato, sans-serif" font-size="12px" font-weight="400" fill="rgb(36, 40, 44)"><tspan xml:space="preserve" x="549" y="607" textLength="68.328125" lengthAdjust="spacingAndGlyphs">Kapoor, Sana</tspan></text><g id="Form badge"><rect width="39.203125" height="18" x="1181.796875" y="591" fill="rgba(132, 204, 22, 0.15)" rx="9" ry="9" id="Fill"/><text dominant-baseline="text-after-edge" font-family="Lato, sans-serif" font-size="10px" font-weight="500" fill="rgb(36, 40, 44)"><tspan xml:space="preserve" x="1189.796875" y="606" textLength="23.203125" lengthAdjust="spacingAndGlyphs">1040</tspan></text></g></g><g id="Client option"><g id="Icon / circleCheck" transform="matrix(0.583333 0 0 0.583333 527 625)"><circle cx="12" cy="12" r="9" fill="none" stroke="rgb(36, 40, 44)" stroke-linecap="round" stroke-linejoin="round" stroke-width="1.5px"/><path d="m9 12 2 2 4-4" fill="none" stroke="rgb(36, 40, 44)" stroke-linecap="round" stroke-linejoin="round" stroke-width="1.5px"/></g><text dominant-baseline="text-after-edge" font-family="Lato, sans-serif" font-size="12px" font-weight="400" fill="rgb(36, 40, 44)"><tspan xml:space="preserve" x="549" y="639" textLength="85.296875" lengthAdjust="spacingAndGlyphs">Khoshya, Ashish</tspan></text><g id="Form badge"><rect width="39.203125" height="18" x="1181.796875" y="623" fill="rgba(132, 204, 22, 0.15)" rx="9" ry="9" id="Fill"/><text dominant-baseline="text-after-edge" font-family="Lato, sans-serif" font-size="10px" font-weight="500" fill="rgb(36, 40, 44)"><tspan xml:space="preserve" x="1189.796875" y="638" textLength="23.203125" lengthAdjust="spacingAndGlyphs">1040</tspan></text></g></g><g id="Client option"><g id="Icon / circle" transform="matrix(0.583333 0 0 0.583333 527 657)"><circle cx="12" cy="12" r="9" fill="none" stroke="rgb(145, 147, 149)" stroke-linecap="round" stroke-linejoin="round" stroke-width="1.5px"/></g><text dominant-baseline="text-after-edge" font-family="Lato, sans-serif" font-size="12px" font-weight="400" fill="rgb(36, 40, 44)"><tspan xml:space="preserve" x="549" y="671" textLength="92.65625" lengthAdjust="spacingAndGlyphs">Northgate Dental</tspan></text><g id="Form badge"><rect width="44.5" height="18" x="1176.5" y="655" fill="rgba(132, 204, 22, 0.15)" rx="9" ry="9" id="Fill"/><text dominant-baseline="text-after-edge" font-family="Lato, sans-serif" font-size="10px" font-weight="500" fill="rgb(36, 40, 44)"><tspan xml:space="preserve" x="1184.5" y="670" textLength="28.5" lengthAdjust="spacingAndGlyphs">1120S</tspan></text></g></g><g id="Client option"><g id="Icon / circleCheck" transform="matrix(0.583333 0 0 0.583333 527 689)"><circle cx="12" cy="12" r="9" fill="none" stroke="rgb(36, 40, 44)" stroke-linecap="round" stroke-linejoin="round" stroke-width="1.5px"/><path d="m9 12 2 2 4-4" fill="none" stroke="rgb(36, 40, 44)" stroke-linecap="round" stroke-linejoin="round" stroke-width="1.5px"/></g><text dominant-baseline="text-after-edge" font-family="Lato, sans-serif" font-size="12px" font-weight="400" fill="rgb(36, 40, 44)"><tspan xml:space="preserve" x="549" y="703" textLength="57.375" lengthAdjust="spacingAndGlyphs">Ortiz, Lena</tspan></text><g id="Form badge"><rect width="39.203125" height="18" x="1181.796875" y="687" fill="rgba(132, 204, 22, 0.15)" rx="9" ry="9" id="Fill"/><text dominant-baseline="text-after-edge" font-family="Lato, sans-serif" font-size="10px" font-weight="500" fill="rgb(36, 40, 44)"><tspan xml:space="preserve" x="1189.796875" y="702" textLength="23.203125" lengthAdjust="spacingAndGlyphs">1040</tspan></text></g></g><g id="Client option"><text dominant-baseline="text-after-edge" font-family="Lato, sans-serif" font-size="12px" font-weight="400" fill="rgb(36, 40, 44)"/><g id="Form badge"><text dominant-baseline="text-after-edge" font-family="Lato, sans-serif" font-size="10px" font-weight="500" fill="rgb(36, 40, 44)"/></g></g><g id="Client option"><text dominant-baseline="text-after-edge" font-family="Lato, sans-serif" font-size="12px" font-weight="400" fill="rgb(36, 40, 44)"/><g id="Form badge"><text dominant-baseline="text-after-edge" font-family="Lato, sans-serif" font-size="10px" font-weight="500" fill="rgb(36, 40, 44)"/></g></g></g></g><g id="Composer"><rect width="726" height="98" x="511" y="589" fill="rgb(255, 255, 255)" stroke="rgb(156, 163, 175)" stroke-width="1px" rx="24" ry="24" id="Fill"/><g id="Composer / Placeholder"><text dominant-baseline="text-after-edge" font-family="Lato, sans-serif" font-size="14px" font-weight="400" unicode-bidi="isolate" fill="rgb(145, 147, 149)"><tspan xml:space="preserve" x="528" y="625" textLength="313.125" lengthAdjust="spacingAndGlyphs">Add any context for this workflow, or send to start...</tspan></text></g><g id="Composer / Controls"><g id="Control group"><g id="Context pill"><rect width="118.671875" height="28" x="520" y="650" fill="rgb(240, 238, 227)" rx="14" ry="14" id="Fill"/><g id="Icon / users" transform="matrix(0.541667 0 0 0.541667 531 657.5)"><path d="M16 21v-2a4 4 0 0 0-4-4H6a4 4 0 0 0-4 4v2" fill="none" stroke="rgb(36, 40, 44)" stroke-linecap="round" stroke-linejoin="round" stroke-width="1.5px"/><circle cx="9" cy="7" r="4" fill="none" stroke="rgb(36, 40, 44)" stroke-linecap="round" stroke-linejoin="round" stroke-width="1.5px"/><path d="M22 21v-2a4 4 0 0 0-3-3.87" fill="none" stroke="rgb(36, 40, 44)" stroke-linecap="round" stroke-linejoin="round" stroke-width="1.5px"/><path d="M16 3.13a4 4 0 0 1 0 7.75" fill="none" stroke="rgb(36, 40, 44)" stroke-linecap="round" stroke-linejoin="round" stroke-width="1.5px"/></g><text dominant-baseline="text-after-edge" font-family="Lato, sans-serif" font-size="12px" font-weight="500" fill="rgb(36, 40, 44)"><tspan xml:space="preserve" x="550" y="671" textLength="43.671875" lengthAdjust="spacingAndGlyphs">8 clients</tspan></text><g id="Icon / chevronDown" transform="matrix(0.5 0 0 0.5 599.672 658)"><path d="m6 9 6 6 6-6" fill="none" stroke="rgb(145, 147, 149)" stroke-linecap="round" stroke-linejoin="round" stroke-width="1.5px"/></g><g id="Remove"><g id="Icon / x" transform="matrix(0.416667 0 0 0.416667 620.672 659)"><path d="M18 6 6 18" fill="none" stroke="rgb(145, 147, 149)" stroke-linecap="round" stroke-linejoin="round" stroke-width="2px"/><path d="m6 6 12 12" fill="none" stroke="rgb(145, 147, 149)" stroke-linecap="round" stroke-linejoin="round" stroke-width="2px"/></g></g></g><g id="Icon button"><rect width="28" height="28" x="646.671875" y="650" fill="rgb(247, 246, 240)" rx="14" ry="14" id="Fill"/><g id="Icon / paperclip" transform="matrix(0.583333 0 0 0.583333 653.672 657)"><path d="m21.44 11.05-9.19 9.19a6 6 0 0 1-8.49-8.49l8.57-8.57A4 4 0 1 1 18 8.84l-8.59 8.57a2 2 0 0 1-2.83-2.83l8.49-8.48" fill="none" stroke="rgb(36, 40, 44)" stroke-linecap="round" stroke-linejoin="round" stroke-width="1.5px"/></g></g><g id="Icon button"><rect width="28" height="28" x="682.671875" y="650" fill="rgb(247, 246, 240)" rx="14" ry="14" id="Fill"/><g id="Icon / settings2" transform="matrix(0.583333 0 0 0.583333 689.672 657)"><path d="M20 7h-9" fill="none" stroke="rgb(36, 40, 44)" stroke-linecap="round" stroke-linejoin="round" stroke-width="1.5px"/><path d="M14 17H5" fill="none" stroke="rgb(36, 40, 44)" stroke-linecap="round" stroke-linejoin="round" stroke-width="1.5px"/><circle cx="17" cy="17" r="3" fill="none" stroke="rgb(36, 40, 44)" stroke-linecap="round" stroke-linejoin="round" stroke-width="1.5px"/><circle cx="7" cy="7" r="3" fill="none" stroke="rgb(36, 40, 44)" stroke-linecap="round" stroke-linejoin="round" stroke-width="1.5px"/></g></g><g id="Icon button"><rect width="28" height="28" x="718.671875" y="650" fill="rgb(36, 40, 44)" rx="14" ry="14" id="Fill"/><g id="Icon / workflow" transform="matrix(0.583333 0 0 0.583333 725.672 657)"><rect width="8" height="8" x="3" y="3" rx="2" fill="none" stroke="rgb(255, 255, 255)" stroke-linecap="round" stroke-linejoin="round" stroke-width="1.5px" id="Border"/><path d="M7 11v4a2 2 0 0 0 2 2h4" fill="none" stroke="rgb(255, 255, 255)" stroke-linecap="round" stroke-linejoin="round" stroke-width="1.5px"/><rect width="8" height="8" x="13" y="13" rx="2" fill="none" stroke="rgb(255, 255, 255)" stroke-linecap="round" stroke-linejoin="round" stroke-width="1.5px" id="Border"/></g></g></g><g id="Control group"><g id="Icon button"><rect width="28" height="28" x="1164" y="650" fill="rgb(247, 246, 240)" rx="14" ry="14" id="Fill"/><g id="Icon / mic" transform="matrix(0.583333 0 0 0.583333 1171 657)"><path d="M12 2a3 3 0 0 0-3 3v7a3 3 0 0 0 6 0V5a3 3 0 0 0-3-3Z" fill="none" stroke="rgb(36, 40, 44)" stroke-linecap="round" stroke-linejoin="round" stroke-width="1.5px"/><path d="M19 10v2a7 7 0 0 1-14 0v-2" fill="none" stroke="rgb(36, 40, 44)" stroke-linecap="round" stroke-linejoin="round" stroke-width="1.5px"/><path d="M12 19v3" fill="none" stroke="rgb(36, 40, 44)" stroke-linecap="round" stroke-linejoin="round" stroke-width="1.5px"/></g></g><g id="Send button"><rect width="28" height="28" x="1200" y="650" fill="rgb(194, 239, 114)" rx="14" ry="14" id="Fill"/><g id="Icon / arrowUp" transform="matrix(0.583333 0 0 0.583333 1207 657)"><path d="m5 12 7-7 7 7" fill="none" stroke="rgb(36, 40, 44)" stroke-linecap="round" stroke-linejoin="round" stroke-width="1.5px"/><path d="M12 19V5" fill="none" stroke="rgb(36, 40, 44)" stroke-linecap="round" stroke-linejoin="round" stroke-width="1.5px"/></g></g></g></g></g></g></svg>