<svg xmlns="http://www.w3.org/2000/svg" xmlns:xlink="http://www.w3.org/1999/xlink" width="742" height="208" viewBox="503 390 742 208"><g id="Tray"><rect width="742" height="208" x="503" y="390" fill="rgb(247, 246, 240)" rx="24" ry="24" id="Fill"/><g id="Tray / Workflows"><g id="Section header"><text dominant-baseline="text-after-edge" font-family="Lato, sans-serif" font-size="10px" font-weight="400" letter-spacing="0.5px" fill="rgb(91, 94, 97)"><tspan xml:space="preserve" x="523" y="419" textLength="98.75" lengthAdjust="spacingAndGlyphs">RUN A WORKFLOW</tspan></text><g id="Icon / x" transform="matrix(0.583333 0 0 0.583333 1211 406)"><rect id="Bounds" width="24" height="24" fill="none"/><path d="M18 6 6 18" fill="none" stroke="rgb(145, 147, 149)" stroke-linecap="round" stroke-linejoin="round" stroke-width="1.5px"/><path d="m6 6 12 12" fill="none" stroke="rgb(145, 147, 149)" stroke-linecap="round" stroke-linejoin="round" stroke-width="1.5px"/></g></g><g id="Tray / Picked workflow"><g id="Workflow chip"><rect width="190.375" height="28" x="523" y="430" fill="rgb(255, 255, 255)" stroke="rgb(222, 221, 216)" stroke-width="1px" rx="14" ry="14" id="Fill"/><rect width="20" height="20" x="528" y="434" fill="rgb(194, 239, 114)" rx="10" ry="10" id="Fill"/><g id="Icon / workflow" transform="matrix(0.5 0 0 0.5 532 438)"><rect id="Bounds" width="24" height="24" fill="none"/><rect width="8" height="8" x="3" y="3" rx="2" fill="none" stroke="rgb(36, 40, 44)" stroke-linecap="round" stroke-linejoin="round" stroke-width="1.5px" id="Border"/><path d="M7 11v4a2 2 0 0 0 2 2h4" fill="none" stroke="rgb(36, 40, 44)" stroke-linecap="round" stroke-linejoin="round" stroke-width="1.5px"/><rect width="8" height="8" x="13" y="13" rx="2" fill="none" stroke="rgb(36, 40, 44)" stroke-linecap="round" stroke-linejoin="round" stroke-width="1.5px" id="Border"/></g><text dominant-baseline="text-after-edge" font-family="Lato, sans-serif" font-size="12px" font-weight="400" fill="rgb(36, 40, 44)"><tspan xml:space="preserve" x="554" y="451" textLength="130.375" lengthAdjust="spacingAndGlyphs">Send payment reminders</tspan></text><g id="Remove"><g id="Icon / x" transform="matrix(0.5 0 0 0.5 692.375 438)"><rect id="Bounds" width="24" height="24" fill="none"/><path d="M18 6 6 18" fill="none" stroke="rgb(145, 147, 149)" stroke-linecap="round" stroke-linejoin="round" stroke-width="2px"/><path d="m6 6 12 12" fill="none" stroke="rgb(145, 147, 149)" stroke-linecap="round" stroke-linejoin="round" stroke-width="2px"/></g></g></g></g><text dominant-baseline="text-after-edge" font-family="Lato, sans-serif" font-size="12px" font-weight="400" unicode-bidi="isolate" fill="rgb(91, 94, 97)"><tspan xml:space="preserve" x="527" y="480">Reminds clients about their next tax payment and tracks who has paid.</tspan><tspan xml:space="preserve" x="891.296875" y="480"> You’ll get: </tspan><tspan xml:space="preserve" x="946.796875" y="480">a reminder for each client and a list of who has paid</tspan><tspan xml:space="preserve" x="1211.375" y="480">.</tspan></text></g><g id="Composer"><rect width="726" height="98" x="511" y="492" fill="rgb(255, 255, 255)" stroke="rgb(156, 163, 175)" stroke-width="1px" rx="24" ry="24" id="Fill"/><g id="Composer / Placeholder"><text dominant-baseline="text-after-edge" font-family="Lato, sans-serif" font-size="14px" font-weight="400" unicode-bidi="isolate" fill="rgb(145, 147, 149)"><tspan xml:space="preserve" x="528" y="528" textLength="313.125" lengthAdjust="spacingAndGlyphs">Add any context for this workflow, or send to start...</tspan></text></g><g id="Composer / Controls"><g id="Control group"><g id="Context pill"><rect width="119.671875" height="28" x="520" y="553" fill="rgb(240, 238, 227)" rx="14" ry="14" id="Fill"/><g id="Icon / users" transform="matrix(0.583333 0 0 0.583333 531 560)"><rect id="Bounds" width="24" height="24" fill="none"/><path d="M16 21v-2a4 4 0 0 0-4-4H6a4 4 0 0 0-4 4v2" fill="none" stroke="rgb(36, 40, 44)" stroke-linecap="round" stroke-linejoin="round" stroke-width="1.5px"/><circle cx="9" cy="7" r="4" fill="none" stroke="rgb(36, 40, 44)" stroke-linecap="round" stroke-linejoin="round" stroke-width="1.5px"/><path d="M22 21v-2a4 4 0 0 0-3-3.87" fill="none" stroke="rgb(36, 40, 44)" stroke-linecap="round" stroke-linejoin="round" stroke-width="1.5px"/><path d="M16 3.13a4 4 0 0 1 0 7.75" fill="none" stroke="rgb(36, 40, 44)" stroke-linecap="round" stroke-linejoin="round" stroke-width="1.5px"/></g><text dominant-baseline="text-after-edge" font-family="Lato, sans-serif" font-size="12px" font-weight="500" fill="rgb(36, 40, 44)"><tspan xml:space="preserve" x="551" y="574" textLength="43.671875" lengthAdjust="spacingAndGlyphs">6 clients</tspan></text><g id="Icon / chevronDown" transform="matrix(0.5 0 0 0.5 600.672 561)"><rect id="Bounds" width="24" height="24" fill="none"/><path d="m6 9 6 6 6-6" fill="none" stroke="rgb(145, 147, 149)" stroke-linecap="round" stroke-linejoin="round" stroke-width="1.5px"/></g><g id="Remove"><g id="Icon / x" transform="matrix(0.5 0 0 0.5 620.672 561)"><rect id="Bounds" width="24" height="24" fill="none"/><path d="M18 6 6 18" fill="none" stroke="rgb(145, 147, 149)" stroke-linecap="round" stroke-linejoin="round" stroke-width="2px"/><path d="m6 6 12 12" fill="none" stroke="rgb(145, 147, 149)" stroke-linecap="round" stroke-linejoin="round" stroke-width="2px"/></g></g></g><g id="Icon button"><rect width="28" height="28" x="647.671875" y="553" fill="rgb(247, 246, 240)" rx="14" ry="14" id="Fill"/><g id="Icon / paperclip" transform="matrix(0.583333 0 0 0.583333 654.672 560)"><rect id="Bounds" width="24" height="24" fill="none"/><path d="m21.44 11.05-9.19 9.19a6 6 0 0 1-8.49-8.49l8.57-8.57A4 4 0 1 1 18 8.84l-8.59 8.57a2 2 0 0 1-2.83-2.83l8.49-8.48" fill="none" stroke="rgb(36, 40, 44)" stroke-linecap="round" stroke-linejoin="round" stroke-width="1.5px"/></g></g><g id="Icon button"><rect width="28" height="28" x="683.671875" y="553" fill="rgb(247, 246, 240)" rx="14" ry="14" id="Fill"/><g id="Icon / settings2" transform="matrix(0.583333 0 0 0.583333 690.672 560)"><rect id="Bounds" width="24" height="24" fill="none"/><path d="M20 7h-9" fill="none" stroke="rgb(36, 40, 44)" stroke-linecap="round" stroke-linejoin="round" stroke-width="1.5px"/><path d="M14 17H5" fill="none" stroke="rgb(36, 40, 44)" stroke-linecap="round" stroke-linejoin="round" stroke-width="1.5px"/><circle cx="17" cy="17" r="3" fill="none" stroke="rgb(36, 40, 44)" stroke-linecap="round" stroke-linejoin="round" stroke-width="1.5px"/><circle cx="7" cy="7" r="3" fill="none" stroke="rgb(36, 40, 44)" stroke-linecap="round" stroke-linejoin="round" stroke-width="1.5px"/></g></g><g id="Icon button"><rect width="28" height="28" x="719.671875" y="553" fill="rgb(36, 40, 44)" rx="14" ry="14" id="Fill"/><g id="Icon / workflow" transform="matrix(0.583333 0 0 0.583333 726.672 560)"><rect id="Bounds" width="24" height="24" fill="none"/><rect width="8" height="8" x="3" y="3" rx="2" fill="none" stroke="rgb(255, 255, 255)" stroke-linecap="round" stroke-linejoin="round" stroke-width="1.5px" id="Border"/><path d="M7 11v4a2 2 0 0 0 2 2h4" fill="none" stroke="rgb(255, 255, 255)" stroke-linecap="round" stroke-linejoin="round" stroke-width="1.5px"/><rect width="8" height="8" x="13" y="13" rx="2" fill="none" stroke="rgb(255, 255, 255)" stroke-linecap="round" stroke-linejoin="round" stroke-width="1.5px" id="Border"/></g></g></g><g id="Control group"><g id="Icon button"><rect width="28" height="28" x="1164" y="553" fill="rgb(247, 246, 240)" rx="14" ry="14" id="Fill"/><g id="Icon / mic" transform="matrix(0.583333 0 0 0.583333 1171 560)"><rect id="Bounds" width="24" height="24" fill="none"/><path d="M12 2a3 3 0 0 0-3 3v7a3 3 0 0 0 6 0V5a3 3 0 0 0-3-3Z" fill="none" stroke="rgb(36, 40, 44)" stroke-linecap="round" stroke-linejoin="round" stroke-width="1.5px"/><path d="M19 10v2a7 7 0 0 1-14 0v-2" fill="none" stroke="rgb(36, 40, 44)" stroke-linecap="round" stroke-linejoin="round" stroke-width="1.5px"/><path d="M12 19v3" fill="none" stroke="rgb(36, 40, 44)" stroke-linecap="round" stroke-linejoin="round" stroke-width="1.5px"/></g></g><g id="Send button"><rect width="28" height="28" x="1200" y="553" fill="rgb(194, 239, 114)" rx="14" ry="14" id="Fill"/><g id="Icon / arrowUp" transform="matrix(0.583333 0 0 0.583333 1207 560)"><rect id="Bounds" width="24" height="24" fill="none"/><path d="m5 12 7-7 7 7" fill="none" stroke="rgb(36, 40, 44)" stroke-linecap="round" stroke-linejoin="round" stroke-width="1.5px"/><path d="M12 19V5" fill="none" stroke="rgb(36, 40, 44)" stroke-linecap="round" stroke-linejoin="round" stroke-width="1.5px"/></g></g></g></g></g></g></svg>