<svg xmlns="http://www.w3.org/2000/svg" xmlns:xlink="http://www.w3.org/1999/xlink" width="316" height="48" viewBox="0 60 316 48"><g id="Left panel / Toolbar"><g id="Left panel / Workflows button"><rect width="196" height="32" x="20" y="60" fill="rgb(255, 255, 255)" stroke="rgb(222, 221, 216)" stroke-width="1px" rx="16" ry="16" id="Fill"/><g id="Icon / workflow" transform="matrix(0.583333 0 0 0.583333 28 69)"><rect id="Bounds" width="24" height="24" fill="none"/><rect width="8" height="8" x="3" y="3" rx="2" fill="none" stroke="rgb(91, 94, 97)" stroke-linecap="round" stroke-linejoin="round" stroke-width="1.5px" id="Border"/><path d="M7 11v4a2 2 0 0 0 2 2h4" fill="none" stroke="rgb(91, 94, 97)" stroke-linecap="round" stroke-linejoin="round" stroke-width="1.5px"/><rect width="8" height="8" x="13" y="13" rx="2" fill="none" stroke="rgb(91, 94, 97)" stroke-linecap="round" stroke-linejoin="round" stroke-width="1.5px" id="Border"/></g><text dominant-baseline="text-after-edge" font-family="Lato, sans-serif" font-size="12px" font-weight="500" fill="rgb(36, 40, 44)"><tspan xml:space="preserve" x="50" y="83" textLength="58.046875" lengthAdjust="spacingAndGlyphs">Workflows</tspan></text></g><g id="Round button"><rect width="32" height="32" x="224" y="60" fill="rgb(255, 255, 255)" stroke="rgb(222, 221, 216)" stroke-width="1px" rx="16" ry="16" id="Fill"/><g id="Icon / library" transform="matrix(0.583333 0 0 0.583333 233 69)"><rect id="Bounds" width="24" height="24" fill="none"/><path d="m16 6 4 14" fill="none" stroke="rgb(91, 94, 97)" stroke-linecap="round" stroke-linejoin="round" stroke-width="1.5px"/><path d="M12 6v14" fill="none" stroke="rgb(91, 94, 97)" stroke-linecap="round" stroke-linejoin="round" stroke-width="1.5px"/><path d="M8 8v12" fill="none" stroke="rgb(91, 94, 97)" stroke-linecap="round" stroke-linejoin="round" stroke-width="1.5px"/><path d="M4 4v16" fill="none" stroke="rgb(91, 94, 97)" stroke-linecap="round" stroke-linejoin="round" stroke-width="1.5px"/></g></g><g id="Round button"><rect width="32" height="32" x="264" y="60" fill="rgb(255, 255, 255)" stroke="rgb(222, 221, 216)" stroke-width="1px" rx="16" ry="16" id="Fill"/><g id="Icon / messagePlus" transform="matrix(0.583333 0 0 0.583333 273 69)"><rect id="Bounds" width="24" height="24" fill="none"/><path d="M21 15a2 2 0 0 1-2 2H7l-4 4V5a2 2 0 0 1 2-2h14a2 2 0 0 1 2 2z" fill="none" stroke="rgb(91, 94, 97)" stroke-linecap="round" stroke-linejoin="round" stroke-width="1.5px"/><path d="M12 7v6" fill="none" stroke="rgb(91, 94, 97)" stroke-linecap="round" stroke-linejoin="round" stroke-width="1.5px"/><path d="M9 10h6" fill="none" stroke="rgb(91, 94, 97)" stroke-linecap="round" stroke-linejoin="round" stroke-width="1.5px"/></g></g></g></svg>