<svg xmlns="http://www.w3.org/2000/svg" xmlns:xlink="http://www.w3.org/1999/xlink" width="1440" height="900" viewBox="0 0 1440 900"><rect width="1440" height="900" x="0" y="0" fill="rgb(251, 251, 247)"/><g id="Left panel"><rect width="316" height="900" x="0" y="0" fill="rgb(251, 251, 247)" id="Fill"/><image xlink:href="http://localhost:5173/img/instead-logo.svg" x="20" y="22.296875" width="60" height="15.390625" id="Left panel / Logo"/><g id="Left panel / Toolbar"><g id="Left panel / Workflows button"><rect width="196" height="32" x="20" y="60" fill="rgb(255, 255, 255)" stroke="rgb(222, 221, 216)" stroke-width="1px" rx="16" ry="16" id="Fill"/><g id="Icon / workflow" transform="matrix(0.583333 0 0 0.583333 28 69)"><rect id="Bounds" width="24" height="24" fill="none"/><rect width="8" height="8" x="3" y="3" rx="2" fill="none" stroke="rgb(91, 94, 97)" stroke-linecap="round" stroke-linejoin="round" stroke-width="1.5px" id="Border"/><path d="M7 11v4a2 2 0 0 0 2 2h4" fill="none" stroke="rgb(91, 94, 97)" stroke-linecap="round" stroke-linejoin="round" stroke-width="1.5px"/><rect width="8" height="8" x="13" y="13" rx="2" fill="none" stroke="rgb(91, 94, 97)" stroke-linecap="round" stroke-linejoin="round" stroke-width="1.5px" id="Border"/></g><text dominant-baseline="text-after-edge" font-family="Lato, sans-serif" font-size="12px" font-weight="500" fill="rgb(36, 40, 44)"><tspan xml:space="preserve" x="50" y="83" textLength="58.046875" lengthAdjust="spacingAndGlyphs">Workflows</tspan></text></g><g id="Round button"><rect width="32" height="32" x="224" y="60" fill="rgb(255, 255, 255)" stroke="rgb(222, 221, 216)" stroke-width="1px" rx="16" ry="16" id="Fill"/><g id="Icon / library" transform="matrix(0.583333 0 0 0.583333 233 69)"><rect id="Bounds" width="24" height="24" fill="none"/><path d="m16 6 4 14" fill="none" stroke="rgb(91, 94, 97)" stroke-linecap="round" stroke-linejoin="round" stroke-width="1.5px"/><path d="M12 6v14" fill="none" stroke="rgb(91, 94, 97)" stroke-linecap="round" stroke-linejoin="round" stroke-width="1.5px"/><path d="M8 8v12" fill="none" stroke="rgb(91, 94, 97)" stroke-linecap="round" stroke-linejoin="round" stroke-width="1.5px"/><path d="M4 4v16" fill="none" stroke="rgb(91, 94, 97)" stroke-linecap="round" stroke-linejoin="round" stroke-width="1.5px"/></g></g><g id="Round button"><rect width="32" height="32" x="264" y="60" fill="rgb(255, 255, 255)" stroke="rgb(222, 221, 216)" stroke-width="1px" rx="16" ry="16" id="Fill"/><g id="Icon / messagePlus" transform="matrix(0.583333 0 0 0.583333 273 69)"><rect id="Bounds" width="24" height="24" fill="none"/><path d="M21 15a2 2 0 0 1-2 2H7l-4 4V5a2 2 0 0 1 2-2h14a2 2 0 0 1 2 2z" fill="none" stroke="rgb(91, 94, 97)" stroke-linecap="round" stroke-linejoin="round" stroke-width="1.5px"/><path d="M12 7v6" fill="none" stroke="rgb(91, 94, 97)" stroke-linecap="round" stroke-linejoin="round" stroke-width="1.5px"/><path d="M9 10h6" fill="none" stroke="rgb(91, 94, 97)" stroke-linecap="round" stroke-linejoin="round" stroke-width="1.5px"/></g></g></g><g id="Left panel / Clients"><g id="Section header"><text dominant-baseline="text-after-edge" font-family="Lato, sans-serif" font-size="10px" font-weight="400" letter-spacing="0.5px" fill="rgb(91, 94, 97)"><tspan xml:space="preserve" x="20" y="130" textLength="43.140625" lengthAdjust="spacingAndGlyphs">CLIENTS</tspan></text><g id="Icon / search" transform="matrix(0.583333 0 0 0.583333 170 117)"><rect id="Bounds" width="24" height="24" fill="none"/><circle cx="11" cy="11" r="8" fill="none" stroke="rgb(145, 147, 149)" stroke-linecap="round" stroke-linejoin="round" stroke-width="1.5px"/><path d="m21 21-4.3-4.3" fill="none" stroke="rgb(145, 147, 149)" stroke-linecap="round" stroke-linejoin="round" stroke-width="1.5px"/></g><g id="Icon / archiveX" transform="matrix(0.583333 0 0 0.583333 196 117)"><rect id="Bounds" width="24" height="24" fill="none"/><rect width="20" height="5" x="2" y="3" rx="1" fill="none" stroke="rgb(145, 147, 149)" stroke-linecap="round" stroke-linejoin="round" stroke-width="1.5px" id="Border"/><path d="M4 8v11a2 2 0 0 0 2 2h12a2 2 0 0 0 2-2V8" fill="none" stroke="rgb(145, 147, 149)" stroke-linecap="round" stroke-linejoin="round" stroke-width="1.5px"/><path d="m9.5 17 5-5" fill="none" stroke="rgb(145, 147, 149)" stroke-linecap="round" stroke-linejoin="round" stroke-width="1.5px"/><path d="m9.5 12 5 5" fill="none" stroke="rgb(145, 147, 149)" stroke-linecap="round" stroke-linejoin="round" stroke-width="1.5px"/></g><g id="Icon / arrowUpDown" transform="matrix(0.583333 0 0 0.583333 222 117)"><rect id="Bounds" width="24" height="24" fill="none"/><path d="m21 16-4 4-4-4" fill="none" stroke="rgb(145, 147, 149)" stroke-linecap="round" stroke-linejoin="round" stroke-width="1.5px"/><path d="M17 20V4" fill="none" stroke="rgb(145, 147, 149)" stroke-linecap="round" stroke-linejoin="round" stroke-width="1.5px"/><path d="m3 8 4-4 4 4" fill="none" stroke="rgb(145, 147, 149)" stroke-linecap="round" stroke-linejoin="round" stroke-width="1.5px"/><path d="M7 4v16" fill="none" stroke="rgb(145, 147, 149)" stroke-linecap="round" stroke-linejoin="round" stroke-width="1.5px"/></g><g id="Icon / listFilter" transform="matrix(0.583333 0 0 0.583333 248 117)"><rect id="Bounds" width="24" height="24" fill="none"/><path d="M3 6h18" fill="none" stroke="rgb(145, 147, 149)" stroke-linecap="round" stroke-linejoin="round" stroke-width="1.5px"/><path d="M7 12h10" fill="none" stroke="rgb(145, 147, 149)" stroke-linecap="round" stroke-linejoin="round" stroke-width="1.5px"/><path d="M10 18h4" fill="none" stroke="rgb(145, 147, 149)" stroke-linecap="round" stroke-linejoin="round" stroke-width="1.5px"/></g><g id="Icon / plus" transform="matrix(0.583333 0 0 0.583333 274 117)"><rect id="Bounds" width="24" height="24" fill="none"/><path d="M5 12h14" fill="none" stroke="rgb(145, 147, 149)" stroke-linecap="round" stroke-linejoin="round" stroke-width="1.5px"/><path d="M12 5v14" fill="none" stroke="rgb(145, 147, 149)" stroke-linecap="round" stroke-linejoin="round" stroke-width="1.5px"/></g></g><g tabindex="0" id="Client row"><g id="Avatar"><g id="Icon / userRound" transform="matrix(0.583333 0 0 0.583333 28 153)"><rect id="Bounds" width="24" height="24" fill="none"/><path d="M18 20a6 6 0 0 0-12 0" fill="none" stroke="rgb(36, 40, 44)" stroke-linecap="round" stroke-linejoin="round" stroke-width="1.5px"/><circle cx="12" cy="10" r="4" fill="none" stroke="rgb(36, 40, 44)" stroke-linecap="round" stroke-linejoin="round" stroke-width="1.5px"/><circle cx="12" cy="12" r="10" fill="none" stroke="rgb(36, 40, 44)" stroke-linecap="round" stroke-linejoin="round" stroke-width="1.5px"/></g></g><text dominant-baseline="text-after-edge" font-family="Lato, sans-serif" font-size="12px" font-weight="400" fill="rgb(36, 40, 44)"><tspan xml:space="preserve" x="53" y="167" textLength="85.296875" lengthAdjust="spacingAndGlyphs">Khoshya, Ashish</tspan></text><g id="Workflow progress"><title>Review a tax return: 1 of 3 done</title><g id="Icon / workflow" transform="matrix(0.5 0 0 0.5 211.438 154)"><rect id="Bounds" width="24" height="24" fill="none"/><rect width="8" height="8" x="3" y="3" rx="2" fill="none" stroke="rgb(145, 147, 149)" stroke-linecap="round" stroke-linejoin="round" stroke-width="1.5px" id="Border"/><path d="M7 11v4a2 2 0 0 0 2 2h4" fill="none" stroke="rgb(145, 147, 149)" stroke-linecap="round" stroke-linejoin="round" stroke-width="1.5px"/><rect width="8" height="8" x="13" y="13" rx="2" fill="none" stroke="rgb(145, 147, 149)" stroke-linecap="round" stroke-linejoin="round" stroke-width="1.5px" id="Border"/></g><text dominant-baseline="text-after-edge" font-family="Lato, sans-serif" font-size="10px" font-weight="400" fill="rgb(145, 147, 149)"><tspan xml:space="preserve" x="226.4375" y="166">1</tspan><tspan xml:space="preserve" x="232.25" y="166">/</tspan><tspan xml:space="preserve" x="235.984375" y="166">3</tspan></text></g><g id="Form badge"><rect width="39.203125" height="18" x="251.796875" y="151" fill="rgba(132, 204, 22, 0.15)" rx="9" ry="9" id="Fill"/><text dominant-baseline="text-after-edge" font-family="Lato, sans-serif" font-size="10px" font-weight="500" fill="rgb(36, 40, 44)"><tspan xml:space="preserve" x="259.796875" y="166" textLength="23.203125" lengthAdjust="spacingAndGlyphs">1040</tspan></text></g></g><g tabindex="0" id="Client row"><title>Signature pending for 4 days</title><g id="Avatar"><g id="Icon / userRound" transform="matrix(0.583333 0 0 0.583333 28 185)"><rect id="Bounds" width="24" height="24" fill="none"/><path d="M18 20a6 6 0 0 0-12 0" fill="none" stroke="rgb(36, 40, 44)" stroke-linecap="round" stroke-linejoin="round" stroke-width="1.5px"/><circle cx="12" cy="10" r="4" fill="none" stroke="rgb(36, 40, 44)" stroke-linecap="round" stroke-linejoin="round" stroke-width="1.5px"/><circle cx="12" cy="12" r="10" fill="none" stroke="rgb(36, 40, 44)" stroke-linecap="round" stroke-linejoin="round" stroke-width="1.5px"/></g></g><text dominant-baseline="text-after-edge" font-family="Lato, sans-serif" font-size="12px" font-weight="400" fill="rgb(36, 40, 44)"><tspan xml:space="preserve" x="53" y="199" textLength="54.609375" lengthAdjust="spacingAndGlyphs">Nair, Priya</tspan></text><rect width="5" height="5" x="240.796875" y="189.5" fill="rgb(201, 123, 74)" rx="2.5" ry="2.5" id="Needs-you dot"/><g id="Form badge"><rect width="39.203125" height="18" x="251.796875" y="183" fill="rgba(132, 204, 22, 0.15)" rx="9" ry="9" id="Fill"/><text dominant-baseline="text-after-edge" font-family="Lato, sans-serif" font-size="10px" font-weight="500" fill="rgb(36, 40, 44)"><tspan xml:space="preserve" x="259.796875" y="198" textLength="23.203125" lengthAdjust="spacingAndGlyphs">1040</tspan></text></g></g><g id="Left panel / Add client"><rect width="276" height="29" x="20" y="218" fill="rgba(0, 0, 0, 0)" stroke="rgb(209, 213, 219)" stroke-width="1px" stroke-dasharray="1" rx="14.5" ry="14.5" id="Fill"/><g id="Icon / plus" transform="matrix(0.583333 0 0 0.583333 29 225.5)"><rect id="Bounds" width="24" height="24" fill="none"/><path d="M5 12h14" fill="none" stroke="rgb(75, 85, 99)" stroke-linecap="round" stroke-linejoin="round" stroke-width="1.5px"/><path d="M12 5v14" fill="none" stroke="rgb(75, 85, 99)" stroke-linecap="round" stroke-linejoin="round" stroke-width="1.5px"/></g><text dominant-baseline="text-after-edge" font-family="Lato, sans-serif" font-size="12px" font-weight="400" fill="rgb(75, 85, 99)"><tspan xml:space="preserve" x="51" y="239.5" textLength="77.546875" lengthAdjust="spacingAndGlyphs">Add new client</tspan></text></g></g><g id="Left panel / Threads"><g id="Section header"><text dominant-baseline="text-after-edge" font-family="Lato, sans-serif" font-size="10px" font-weight="400" letter-spacing="0.5px" fill="rgb(91, 94, 97)"><tspan xml:space="preserve" x="20" y="565" textLength="48.84375" lengthAdjust="spacingAndGlyphs">THREADS</tspan></text><g id="Icon / plus" transform="matrix(0.583333 0 0 0.583333 274 552)"><rect id="Bounds" width="24" height="24" fill="none"/><path d="M5 12h14" fill="none" stroke="rgb(145, 147, 149)" stroke-linecap="round" stroke-linejoin="round" stroke-width="1.5px"/><path d="M12 5v14" fill="none" stroke="rgb(145, 147, 149)" stroke-linecap="round" stroke-linejoin="round" stroke-width="1.5px"/></g></g><g tabindex="0" id="Thread row"><title>Review a tax return for Ashish Khoshya: 1 of 3 steps done</title><g id="Icon / workflow" transform="matrix(0.5 0 0 0.5 24 589)"><rect id="Bounds" width="24" height="24" fill="none"/><rect width="8" height="8" x="3" y="3" rx="2" fill="none" stroke="rgb(145, 147, 149)" stroke-linecap="round" stroke-linejoin="round" stroke-width="1.5px" id="Border"/><path d="M7 11v4a2 2 0 0 0 2 2h4" fill="none" stroke="rgb(145, 147, 149)" stroke-linecap="round" stroke-linejoin="round" stroke-width="1.5px"/><rect width="8" height="8" x="13" y="13" rx="2" fill="none" stroke="rgb(145, 147, 149)" stroke-linecap="round" stroke-linejoin="round" stroke-width="1.5px" id="Border"/></g><text dominant-baseline="text-after-edge" font-family="Lato, sans-serif" font-size="12px" font-weight="400" fill="rgb(91, 94, 97)"><tspan xml:space="preserve" x="48" y="602" textLength="101.984375" lengthAdjust="spacingAndGlyphs">Review a tax return</tspan></text><text dominant-baseline="text-after-edge" font-family="Lato, sans-serif" font-size="12px" font-weight="400" fill="rgb(145, 147, 149)"><tspan xml:space="preserve" x="149.984375" y="602"> · </tspan><tspan xml:space="preserve" x="157.90625" y="602">Ashish Khoshya</tspan></text><text dominant-baseline="text-after-edge" font-family="Lato, sans-serif" font-size="10px" font-weight="400" fill="rgb(145, 147, 149)"><tspan xml:space="preserve" x="272.640625" y="601">1</tspan><tspan xml:space="preserve" x="278.453125" y="601">/</tspan><tspan xml:space="preserve" x="282.1875" y="601">3</tspan></text></g></g><g id="Left panel / User card"><rect width="276" height="73" x="20" y="807" fill="rgb(247, 246, 240)" rx="16" ry="16" id="Fill"/><text dominant-baseline="text-after-edge" font-family="&quot;Libre Baskerville&quot;, serif" font-size="12px" font-weight="400" unicode-bidi="isolate" fill="rgb(36, 40, 44)"><tspan xml:space="preserve" x="32" y="834" textLength="132.578125" lengthAdjust="spacingAndGlyphs">Lokesh Kumar Bhatia</tspan></text><g id="Initials"><rect width="22" height="22" x="32" y="846" fill="rgb(240, 238, 227)" rx="11" ry="11" id="Fill"/><text dominant-baseline="text-after-edge" font-family="&quot;Libre Baskerville&quot;, serif" font-size="10px" font-weight="400" unicode-bidi="isolate" fill="rgb(91, 94, 97)"><tspan xml:space="preserve" x="35.515625" y="863" textLength="14.953125" lengthAdjust="spacingAndGlyphs">LB</tspan></text></g><g id="Icon / userPlus" transform="matrix(0.583333 0 0 0.583333 240 850)"><rect id="Bounds" width="24" height="24" fill="none"/><path d="M16 21v-2a4 4 0 0 0-4-4H6a4 4 0 0 0-4 4v2" fill="none" stroke="rgb(145, 147, 149)" stroke-linecap="round" stroke-linejoin="round" stroke-width="1.5px"/><circle cx="9" cy="7" r="4" fill="none" stroke="rgb(145, 147, 149)" stroke-linecap="round" stroke-linejoin="round" stroke-width="1.5px"/><path d="M19 8v6" fill="none" stroke="rgb(145, 147, 149)" stroke-linecap="round" stroke-linejoin="round" stroke-width="1.5px"/><path d="M22 11h-6" fill="none" stroke="rgb(145, 147, 149)" stroke-linecap="round" stroke-linejoin="round" stroke-width="1.5px"/></g><g id="Icon / settings2" transform="matrix(0.583333 0 0 0.583333 266 850)"><rect id="Bounds" width="24" height="24" fill="none"/><path d="M20 7h-9" fill="none" stroke="rgb(145, 147, 149)" stroke-linecap="round" stroke-linejoin="round" stroke-width="1.5px"/><path d="M14 17H5" fill="none" stroke="rgb(145, 147, 149)" stroke-linecap="round" stroke-linejoin="round" stroke-width="1.5px"/><circle cx="17" cy="17" r="3" fill="none" stroke="rgb(145, 147, 149)" stroke-linecap="round" stroke-linejoin="round" stroke-width="1.5px"/><circle cx="7" cy="7" r="3" fill="none" stroke="rgb(145, 147, 149)" stroke-linecap="round" stroke-linejoin="round" stroke-width="1.5px"/></g></g></g><g id="Headline"><text dominant-baseline="text-after-edge" font-family="&quot;Libre Baskerville&quot;, serif" font-size="24px" font-weight="500" unicode-bidi="isolate" fill="rgb(36, 40, 44)"><tspan xml:space="preserve" x="557.65625" y="355" textLength="632.6875" lengthAdjust="spacingAndGlyphs">Priya Nair needs you today. Where should we start?</tspan></text></g><g id="Needs you list"><rect width="742" height="186" x="503" y="401" fill="rgb(247, 246, 240)" rx="24" ry="24" id="Fill"/><g id="Section header"><text dominant-baseline="text-after-edge" font-family="Lato, sans-serif" font-size="10px" font-weight="400" letter-spacing="0.5px" fill="rgb(91, 94, 97)"><tspan xml:space="preserve" x="523" y="430" textLength="59.625" lengthAdjust="spacingAndGlyphs">NEEDS YOU</tspan></text><g id="Running workflows link"><text dominant-baseline="text-after-edge" font-family="Lato, sans-serif" font-size="12px" font-weight="400" fill="rgb(91, 94, 97)"><tspan xml:space="preserve" x="1100.6875" y="431">1</tspan><tspan xml:space="preserve" x="1107.65625" y="431"> workflow</tspan></text><text dominant-baseline="text-after-edge" font-family="Lato, sans-serif" font-size="12px" font-weight="400" fill="rgb(91, 94, 97)"/><text dominant-baseline="text-after-edge" font-family="Lato, sans-serif" font-size="12px" font-weight="400" fill="rgb(91, 94, 97)"><tspan xml:space="preserve" x="1159.953125" y="431" textLength="43.046875" lengthAdjust="spacingAndGlyphs"> running</tspan></text><g id="Icon / moveRight" transform="matrix(0.5 0 0 0.5 1209 418)"><rect id="Bounds" width="24" height="24" fill="none"/><path d="M18 8L22 12L18 16" fill="none" stroke="rgb(145, 147, 149)" stroke-linecap="round" stroke-linejoin="round" stroke-width="1.5px"/><path d="M2 12H22" fill="none" stroke="rgb(145, 147, 149)" stroke-linecap="round" stroke-linejoin="round" stroke-width="1.5px"/></g></g></g><g id="Rows"><g id="Needs you row"><rect width="5" height="5" x="529" y="454.5" fill="rgb(201, 123, 74)" rx="2.5" ry="2.5" id="Needs-you dot"/><text dominant-baseline="text-after-edge" font-family="Lato, sans-serif" font-size="12px" font-weight="400" fill="rgb(36, 40, 44)"><tspan xml:space="preserve" x="542" y="464" textLength="52.859375" lengthAdjust="spacingAndGlyphs">Priya Nair</tspan></text><text dominant-baseline="text-after-edge" font-family="Lato, sans-serif" font-size="12px" font-weight="400" fill="rgb(145, 147, 149)"><tspan xml:space="preserve" x="602.859375" y="464" textLength="148.5" lengthAdjust="spacingAndGlyphs">Signature pending for 4 days</tspan></text></g></g><g id="Chat box"><rect width="726" height="98" x="511" y="481" fill="rgb(255, 255, 255)" stroke="rgb(156, 163, 175)" stroke-width="1px" rx="24" ry="24" id="Fill"/><g id="Placeholder"><text dominant-baseline="text-after-edge" font-family="Lato, sans-serif" font-size="14px" font-weight="400" unicode-bidi="isolate" fill="rgb(145, 147, 149)"><tspan xml:space="preserve" x="528" y="517" textLength="237.25" lengthAdjust="spacingAndGlyphs">Give me a task or question to work on...</tspan></text></g><g id="Chat box / Controls"><g id="Control group"><g id="Client selector"><rect width="111.015625" height="28" x="520" y="542" fill="rgb(255, 255, 255)" stroke="rgb(222, 221, 216)" stroke-width="1px" rx="14" ry="14" id="Fill"/><g id="Icon / users" transform="matrix(0.583333 0 0 0.583333 531 549)"><rect id="Bounds" width="24" height="24" fill="none"/><path d="M16 21v-2a4 4 0 0 0-4-4H6a4 4 0 0 0-4 4v2" fill="none" stroke="rgb(91, 94, 97)" stroke-linecap="round" stroke-linejoin="round" stroke-width="1.5px"/><circle cx="9" cy="7" r="4" fill="none" stroke="rgb(91, 94, 97)" stroke-linecap="round" stroke-linejoin="round" stroke-width="1.5px"/><path d="M22 21v-2a4 4 0 0 0-3-3.87" fill="none" stroke="rgb(91, 94, 97)" stroke-linecap="round" stroke-linejoin="round" stroke-width="1.5px"/><path d="M16 3.13a4 4 0 0 1 0 7.75" fill="none" stroke="rgb(91, 94, 97)" stroke-linecap="round" stroke-linejoin="round" stroke-width="1.5px"/></g><text dominant-baseline="text-after-edge" font-family="Lato, sans-serif" font-size="12px" font-weight="500" fill="rgb(91, 94, 97)"><tspan xml:space="preserve" x="551" y="563" textLength="51.015625" lengthAdjust="spacingAndGlyphs">All clients</tspan></text><g id="Icon / chevronDown" transform="matrix(0.5 0 0 0.5 608.016 550)"><rect id="Bounds" width="24" height="24" fill="none"/><path d="m6 9 6 6 6-6" fill="none" stroke="rgb(145, 147, 149)" stroke-linecap="round" stroke-linejoin="round" stroke-width="1.5px"/></g></g><g id="Icon button"><rect width="28" height="28" x="639.015625" y="542" fill="rgb(247, 246, 240)" rx="14" ry="14" id="Fill"/><g id="Icon / paperclip" transform="matrix(0.583333 0 0 0.583333 646.016 549)"><rect id="Bounds" width="24" height="24" fill="none"/><path d="m21.44 11.05-9.19 9.19a6 6 0 0 1-8.49-8.49l8.57-8.57A4 4 0 1 1 18 8.84l-8.59 8.57a2 2 0 0 1-2.83-2.83l8.49-8.48" fill="none" stroke="rgb(36, 40, 44)" stroke-linecap="round" stroke-linejoin="round" stroke-width="1.5px"/></g></g><g id="Icon button"><rect width="28" height="28" x="675.015625" y="542" fill="rgb(247, 246, 240)" rx="14" ry="14" id="Fill"/><g id="Icon / settings2" transform="matrix(0.583333 0 0 0.583333 682.016 549)"><rect id="Bounds" width="24" height="24" fill="none"/><path d="M20 7h-9" fill="none" stroke="rgb(36, 40, 44)" stroke-linecap="round" stroke-linejoin="round" stroke-width="1.5px"/><path d="M14 17H5" fill="none" stroke="rgb(36, 40, 44)" stroke-linecap="round" stroke-linejoin="round" stroke-width="1.5px"/><circle cx="17" cy="17" r="3" fill="none" stroke="rgb(36, 40, 44)" stroke-linecap="round" stroke-linejoin="round" stroke-width="1.5px"/><circle cx="7" cy="7" r="3" fill="none" stroke="rgb(36, 40, 44)" stroke-linecap="round" stroke-linejoin="round" stroke-width="1.5px"/></g></g><g id="Icon button"><rect width="28" height="28" x="711.015625" y="542" fill="rgb(247, 246, 240)" rx="14" ry="14" id="Fill"/><g id="Icon / workflow" transform="matrix(0.583333 0 0 0.583333 718.016 549)"><rect id="Bounds" width="24" height="24" fill="none"/><rect width="8" height="8" x="3" y="3" rx="2" fill="none" stroke="rgb(36, 40, 44)" stroke-linecap="round" stroke-linejoin="round" stroke-width="1.5px" id="Border"/><path d="M7 11v4a2 2 0 0 0 2 2h4" fill="none" stroke="rgb(36, 40, 44)" stroke-linecap="round" stroke-linejoin="round" stroke-width="1.5px"/><rect width="8" height="8" x="13" y="13" rx="2" fill="none" stroke="rgb(36, 40, 44)" stroke-linecap="round" stroke-linejoin="round" stroke-width="1.5px" id="Border"/></g></g></g><g id="Control group"><g id="Icon button"><rect width="28" height="28" x="1164" y="542" fill="rgb(247, 246, 240)" rx="14" ry="14" id="Fill"/><g id="Icon / mic" transform="matrix(0.583333 0 0 0.583333 1171 549)"><rect id="Bounds" width="24" height="24" fill="none"/><path d="M12 2a3 3 0 0 0-3 3v7a3 3 0 0 0 6 0V5a3 3 0 0 0-3-3Z" fill="none" stroke="rgb(36, 40, 44)" stroke-linecap="round" stroke-linejoin="round" stroke-width="1.5px"/><path d="M19 10v2a7 7 0 0 1-14 0v-2" fill="none" stroke="rgb(36, 40, 44)" stroke-linecap="round" stroke-linejoin="round" stroke-width="1.5px"/><path d="M12 19v3" fill="none" stroke="rgb(36, 40, 44)" stroke-linecap="round" stroke-linejoin="round" stroke-width="1.5px"/></g></g><g id="Send button"><rect width="28" height="28" x="1200" y="542" fill="rgba(218, 245, 170, 0.2)" rx="14" ry="14" id="Fill"/><g id="Icon / arrowUp" transform="matrix(0.583333 0 0 0.583333 1207 549)"><rect id="Bounds" width="24" height="24" fill="none"/><path d="m5 12 7-7 7 7" fill="none" stroke="rgb(145, 147, 149)" stroke-linecap="round" stroke-linejoin="round" stroke-width="1.5px"/><path d="M12 19V5" fill="none" stroke="rgb(145, 147, 149)" stroke-linecap="round" stroke-linejoin="round" stroke-width="1.5px"/></g></g></g></g></g></g></svg>